<svg width="65" height="53" viewBox="0 0 65 53" fill="none" xmlns="http://www.w3.org/2000/svg">
<path d="M36.6474 7.52133C29.6117 8.37605 19.4803 19.7724 18.636 24.9007C17.9935 28.8035 22.0776 27.9211 41.4317 24.1372C47.5094 22.9489 55.0929 21.4746 64.5088 19.7724C52.1259 8.09115 43.6831 6.66661 36.6474 7.52133Z" fill="black"/>
<path fill-rule="evenodd" clip-rule="evenodd" d="M8.29778 7.81445C12.7972 -4.82425 38.152 -2.1355 32.647 18.3022L60.7016 46.8079C61.1427 48.1525 61.3897 50.6265 58.8489 49.766C56.3082 48.9055 52.6735 47.4354 51.1737 46.8079C48.1742 49.2282 39.9519 53.6384 31.0591 51.9173L28.6772 51.1106L21.2665 48.1525L19.1492 47.0768C12.8855 43.5809 1.57545 31.8561 6.44529 12.9243L0.0933228 7.81445H8.29778ZM18.3552 12.1175C16.6012 12.1175 15.1792 10.6728 15.1792 8.89052C15.1792 7.1083 16.6012 5.66351 18.3552 5.66351C20.1093 5.66351 21.5312 7.1083 21.5312 8.89052C21.5312 10.6728 20.1093 12.1175 18.3552 12.1175Z" fill="black"/>
<path fill-rule="evenodd" clip-rule="evenodd" d="M0.0933228 24.1372C0.937611 19.0089 12.3226 4.98359 19.3584 4.12887C26.3941 3.27415 34.8369 4.69869 47.2197 16.3799C37.8039 18.0821 30.2204 19.5565 24.1426 20.7447C23.7241 20.8266 23.3128 20.907 22.9085 20.9861C4.61418 24.5646 -0.535301 27.9556 0.0933228 24.1372ZM18.3552 12.1175C16.6012 12.1175 15.1792 10.6728 15.1792 8.89052C15.1792 7.1083 16.6012 5.66351 18.3552 5.66351C20.1093 5.66351 21.5312 7.1083 21.5312 8.89052C21.5312 10.6728 20.1093 12.1175 18.3552 12.1175Z" fill="black"/>
</svg>
