<svg width="85" height="68" viewBox="0 0 85 68" fill="none" xmlns="http://www.w3.org/2000/svg">
<path d="M48.6678 9.59923C39.493 10.7138 26.2813 25.575 25.1803 32.2625C24.3424 37.3519 29.6683 36.2012 54.9066 31.2669C62.8322 29.7174 72.7214 27.7947 85 25.575C68.8523 10.3423 57.8426 8.48464 48.6678 9.59923Z" fill="black"/>
<path fill-rule="evenodd" clip-rule="evenodd" d="M11.6989 9.98146C17.5663 -6.49984 50.6298 -2.99362 43.4511 23.6579L80.0353 60.8303C80.6105 62.5837 80.9326 65.8099 77.6194 64.6877C74.3061 63.5656 69.5663 61.6486 67.6106 60.8303C63.6991 63.9864 52.977 69.7375 41.3805 67.4932L38.2743 66.4411L28.6106 62.5837L25.8495 61.181C17.6814 56.6222 2.93274 41.3326 9.28318 16.6449L1 9.98146H11.6989ZM24.8141 15.5928C22.5268 15.5928 20.6726 13.7088 20.6726 11.3847C20.6726 9.06062 22.5268 7.17657 24.8141 7.17657C27.1015 7.17657 28.9557 9.06062 28.9557 11.3847C28.9557 13.7088 27.1015 15.5928 24.8141 15.5928Z" fill="black"/>
<path fill-rule="evenodd" clip-rule="evenodd" d="M1 31.2669C2.10098 24.5794 16.9475 6.28993 26.1223 5.17534C35.2971 4.06075 46.3068 5.9184 62.4545 21.1511C50.1759 23.3708 40.2867 25.2935 32.3611 26.843C31.8154 26.9497 31.279 27.0546 30.7517 27.1578C6.89535 31.8242 0.180252 36.2462 1 31.2669ZM24.8141 15.5928C22.5268 15.5928 20.6726 13.7088 20.6726 11.3847C20.6726 9.06062 22.5268 7.17657 24.8141 7.17657C27.1015 7.17657 28.9557 9.06062 28.9557 11.3847C28.9557 13.7088 27.1015 15.5928 24.8141 15.5928Z" fill="black"/>
</svg>
