<svg width="76" height="68" viewBox="0 0 76 68" fill="none" xmlns="http://www.w3.org/2000/svg">
<path fill-rule="evenodd" clip-rule="evenodd" d="M10.2406 9.46621C15.8566 -6.16431 47.5038 -2.83909 40.6326 22.4367L75.6496 57.6902C76.2002 59.353 76.5085 62.4127 73.3372 61.3485C70.1658 60.2842 65.6291 58.4662 63.7571 57.6902C60.0132 60.6834 49.7504 66.1376 38.6507 64.0091V68H35.6776V63.0114L26.4278 59.353V68H23.785V58.0227C15.9668 53.6993 1.84995 39.199 7.92835 15.7856L3.04315e-06 9.46621H10.2406ZM22.794 14.7879C20.6046 14.7879 18.8298 13.0011 18.8298 10.797C18.8298 8.5929 20.6046 6.80611 22.794 6.80611C24.9834 6.80611 26.7582 8.5929 26.7582 10.797C26.7582 13.0011 24.9834 14.7879 22.794 14.7879Z" fill="black"/>
</svg>
