<svg width="31" height="29" viewBox="0 0 31 29" fill="none" xmlns="http://www.w3.org/2000/svg">
<path d="M28.5988 0H2.39521C1.13999 0 0.125 0.925657 0.125 2.0701V26.6477C0.125 27.7921 1.13999 28.7234 2.39521 28.7234H28.5988C29.854 28.7234 30.875 27.7921 30.875 26.6533V2.0701C30.875 0.925657 29.854 0 28.5988 0ZM9.2479 24.4766H4.68345V10.7657H9.2479V24.4766ZM6.96567 8.89752C5.50024 8.89752 4.31709 7.79235 4.31709 6.42911C4.31709 5.06587 5.50024 3.96069 6.96567 3.96069C8.4251 3.96069 9.60825 5.06587 9.60825 6.42911C9.60825 7.78674 8.4251 8.89752 6.96567 8.89752ZM26.3286 24.4766H21.7701V17.8119C21.7701 16.2242 21.7401 14.1766 19.3978 14.1766C17.0255 14.1766 16.6651 15.9101 16.6651 17.6997V24.4766H12.1127V10.7657H16.485V12.6394H16.545C17.1516 11.5623 18.6411 10.4235 20.8572 10.4235C25.4757 10.4235 26.3286 13.2621 26.3286 16.9535V24.4766Z" fill="black"/>
</svg>
