<svg width="40" height="54" viewBox="0 0 40 54" fill="none" xmlns="http://www.w3.org/2000/svg">
<path fill-rule="evenodd" clip-rule="evenodd" d="M18.5255 11.8082C15.0631 -0.930913 31.0099 -2.60684 33.8398 5.27101H39L35.0049 8.45604C37.9342 19.7415 31.5559 26.9183 27.5476 29.4292C27.3647 29.5438 27.1868 29.6486 27.0149 29.7437L26.1126 30.198L25.6832 30.4142L21.5684 32.042L21.0223 32.258L19.8943 32.6367L19.5241 32.7609C13.9311 33.8337 9.05667 31.1145 7.17012 29.6059C6.22686 29.997 3.84224 31.5692 1.92902 31.5692C0.264945 31.5692 1.81357 29.0368 2.97221 27.8423L18.5255 11.8082ZM29.5118 5.94174C29.5118 7.05263 28.6174 7.95318 27.5142 7.95318C26.411 7.95318 25.5167 7.05263 25.5167 5.94174C25.5167 4.83086 26.411 3.93029 27.5142 3.93029C28.6174 3.93029 29.5118 4.83086 29.5118 5.94174ZM14.9297 26.559C24.2515 30.9841 26.8039 22.0332 26.9148 17.0046H26.7931C25.4346 31.0355 17.1005 27.3559 15.1913 26.513C15.0823 26.4649 14.9943 26.426 14.9297 26.4002C13.9723 26.0178 15.1452 24.8774 15.7835 24.3994L15.5955 24.3799C13.8643 25.7209 14.4303 26.3913 14.9297 26.559Z" fill="black"/>
<path d="M21.0223 32.258L19.8943 32.6367V34.9151H21.5684V32.042L21.0223 32.258Z" fill="black"/>
<path d="M27.0149 29.7437L26.1126 30.198V34.9151H27.5476V29.4292C27.3647 29.5438 27.1868 29.6486 27.0149 29.7437Z" fill="black"/>
<rect width="40" height="8" rx="4" transform="matrix(-1 0 0 1 40 34.5)" fill="black"/>
<rect width="24" height="8" rx="4" transform="matrix(-1 0 0 1 32 45.5)" fill="black"/>
</svg>
