<svg width="85" height="69" viewBox="0 0 85 69" fill="none" xmlns="http://www.w3.org/2000/svg">
<path fill-rule="evenodd" clip-rule="evenodd" d="M41.7322 23.6579C34.4886 -2.99362 67.851 -6.49984 73.7715 9.98146H84.5671L76.209 16.6449C82.3373 40.2553 68.9932 55.2699 60.6075 60.523C60.2249 60.7627 59.8526 60.982 59.4929 61.181L57.6053 62.1313L56.7069 62.5837L48.0984 65.9891L46.9558 66.4411L44.5958 67.2333L43.8215 67.4932C32.1203 69.7375 21.9225 64.0487 17.9756 60.8926C16.0022 61.7108 11.0133 65 7.01067 65C6.03027 65 5.4987 64.6549 5.24968 64.1296C4.34532 62.2218 6.2736 60.2128 7.7436 58.6974L41.7322 23.6579ZM64.7168 11.3847C64.7168 13.7088 62.8457 15.5928 60.5377 15.5928C58.2297 15.5928 56.3586 13.7088 56.3586 11.3847C56.3586 9.06061 58.2297 7.17643 60.5377 7.17643C61.1035 7.17643 61.643 7.28965 62.1351 7.49483C63.6506 8.12664 64.7168 9.63034 64.7168 11.3847ZM34.2095 54.5181C51.9557 62.9424 57.9751 48.195 59.0901 37.5442C59.2004 36.4904 59.2627 35.4767 59.2836 34.5294H59.029C58.923 35.6249 58.7966 36.6687 58.6513 37.6632C54.9042 63.3172 38.602 56.1197 34.7568 54.422C34.5288 54.3213 34.3447 54.24 34.2095 54.186C32.2065 53.386 34.6604 51 35.9957 50L35.6024 49.9593C31.9806 52.7647 33.1647 54.1674 34.2095 54.5181Z" fill="black"/>
<path d="M37.0324 11.8661C46.2072 12.9807 59.4189 27.8419 60.5199 34.5294C60.7811 36.1159 60.4433 37.0961 59.0901 37.5442C58.9542 37.5892 58.8081 37.6289 58.6513 37.6632C55.3608 38.3841 47.3743 36.7755 30.7935 33.5338C22.868 31.9843 12.9788 30.0616 0.700195 27.8419C16.8478 12.6092 27.8576 10.7515 37.0324 11.8661Z" fill="black"/>
<path fill-rule="evenodd" clip-rule="evenodd" d="M60.5377 7.17643C51.3629 6.06184 40.3531 7.91949 24.2054 23.1522C36.484 25.3719 46.3732 27.2946 54.2988 28.8441C54.8445 28.9508 55.3809 29.0557 55.9082 29.1588C79.7646 33.8253 84.8449 34.819 84.0252 29.8397C82.9866 23.5316 71.1725 9.95083 62.1351 7.49483C63.6506 8.12664 64.7168 9.63034 64.7168 11.3847C64.7168 13.7088 62.8457 15.5928 60.5377 15.5928C58.2297 15.5928 56.3586 13.7088 56.3586 11.3847C56.3586 9.06061 58.2297 7.17643 60.5377 7.17643Z" fill="black"/>
<path d="M34.2095 54.5181C51.9557 62.9424 57.9751 48.195 59.0901 37.5442C58.9542 37.5892 58.8081 37.6289 58.6513 37.6632C54.9042 63.3172 38.602 56.1197 34.7568 54.422C34.5288 54.3213 34.3447 54.24 34.2095 54.186C32.2065 53.386 34.6604 51 35.9957 50L35.6024 49.9593C31.9806 52.7647 33.1647 54.1674 34.2095 54.5181Z" fill="black"/>
</svg>
