<svg width="77" height="69" viewBox="0 0 77 69" fill="none" xmlns="http://www.w3.org/2000/svg">
<path fill-rule="evenodd" clip-rule="evenodd" d="M36.051 22.6164C29.1262 -2.86183 61.0199 -6.21368 66.6796 9.54203H77L69.0099 15.9121C74.8683 38.4831 62.1117 52.8366 54.0952 57.8584C53.7295 58.0876 53.3736 58.2973 53.0297 58.4875L51.2252 59.396L50.3664 59.8284L42.1368 63.084L41.0446 63.516L38.7885 64.2733L38.0483 64.5218C26.8622 66.6673 17.1133 61.2289 13.3402 58.2118C11.4537 58.994 6.68449 62.1384 2.85805 62.1384C2.00054 62.1384 1.5022 61.8622 1.24131 61.4306C0.149087 59.6238 2.18704 57.5273 3.65703 56.0118L36.051 22.6164ZM58.0235 10.8835C58.0235 13.1053 56.2349 14.9064 54.0285 14.9064C51.8221 14.9064 50.0334 13.1053 50.0334 10.8835C50.0334 8.66172 51.8221 6.86058 54.0285 6.86058C56.2349 6.86058 58.0235 8.66172 58.0235 10.8835ZM28.8594 52.1179C47.5029 60.9682 52.6077 43.0665 52.8297 33.0093H52.5863C49.8692 61.071 33.201 53.7119 29.3826 52.026C29.1647 51.9298 28.9886 51.8521 28.8594 51.8005C26.9446 51.0357 29.2905 48.7547 30.567 47.7987L30.191 47.7598C26.7287 50.4417 27.8606 51.7827 28.8594 52.1179Z" fill="black"/>
<path d="M41.0446 63.516L38.7885 64.2733V68.8302H42.1368V63.084L41.0446 63.516Z" fill="black"/>
<path d="M53.0297 58.4875L51.2252 59.396V68.8302H54.0952V57.8584C53.7295 58.0876 53.3736 58.2973 53.0297 58.4875Z" fill="black"/>
</svg>
