<svg width="84" height="68" viewBox="0 0 84 68" fill="none" xmlns="http://www.w3.org/2000/svg">
<path d="M36.3322 9.59922C45.507 10.7138 58.7187 25.575 59.8197 32.2625C60.6576 37.3519 55.3317 36.2012 30.0934 31.2669C22.1678 29.7174 12.2786 27.7947 0 25.575C16.1477 10.3423 27.1574 8.48464 36.3322 9.59922Z" fill="black"/>
<path fill-rule="evenodd" clip-rule="evenodd" d="M73.3011 9.98146C67.4337 -6.49984 34.3702 -2.99362 41.5489 23.6579L4.96471 60.8303C4.38949 62.5837 4.06737 65.8099 7.38064 64.6877C10.6939 63.5656 15.4337 61.6486 17.3894 60.8303C21.3009 63.9864 32.023 69.7375 43.6195 67.4932L46.7257 66.4411L56.3894 62.5837L59.1505 61.181C67.3186 56.6222 82.0673 41.3326 75.7168 16.6449L84 9.98146H73.3011ZM60.1859 15.5928C62.4732 15.5928 64.3274 13.7088 64.3274 11.3847C64.3274 9.06061 62.4732 7.17657 60.1859 7.17657C57.8985 7.17657 56.0443 9.06061 56.0443 11.3847C56.0443 13.7088 57.8985 15.5928 60.1859 15.5928Z" fill="black"/>
<path fill-rule="evenodd" clip-rule="evenodd" d="M82.3652 27.8386C81.2643 21.1511 68.0525 6.28993 58.8777 5.17534C49.7029 4.06075 38.6932 5.9184 22.5455 21.1511C34.8241 23.3708 44.7133 25.2935 52.6389 26.843C53.1846 26.9497 53.721 27.0546 54.2483 27.1578C78.1046 31.8242 83.185 32.8179 82.3652 27.8386ZM60.1859 15.5928C62.4732 15.5928 64.3274 13.7088 64.3274 11.3847C64.3274 9.06061 62.4732 7.17657 60.1859 7.17657C57.8985 7.17657 56.0443 9.06061 56.0443 11.3847C56.0443 13.7088 57.8985 15.5928 60.1859 15.5928Z" fill="black"/>
</svg>
