<svg width="81" height="72" viewBox="0 0 81 72" fill="none" xmlns="http://www.w3.org/2000/svg">
<path fill-rule="evenodd" clip-rule="evenodd" d="M37.6652 23.6579C30.4215 -2.99362 63.7839 -6.49984 69.7044 9.98146H80.5L72.1419 16.6449C78.2702 40.2553 64.9261 55.2699 56.5404 60.523C56.1578 60.7627 55.7855 60.982 55.4258 61.181L53.5382 62.1313L52.6398 62.5837L44.0313 65.9891L42.8887 66.4411L40.5288 67.2333L39.7545 67.4932C28.0532 69.7375 17.8554 64.0487 13.9085 60.8926C11.9351 61.7108 6.94627 65 2.94362 65C1.96321 65 1.43164 64.6549 1.18263 64.1296C0.278265 62.2218 2.20655 60.2128 3.67654 58.6974L37.6652 23.6579ZM60.6496 11.3847C60.6496 13.7088 58.7786 15.5928 56.4706 15.5928C54.1626 15.5928 52.2916 13.7088 52.2916 11.3847C52.2916 9.06061 54.1626 7.17653 56.4706 7.17653C58.7786 7.17653 60.6496 9.06061 60.6496 11.3847ZM30.1424 54.5181C49.6445 63.776 54.9844 45.0498 55.2165 34.5294H54.962C52.1197 63.8834 34.684 56.1855 30.6897 54.422C30.4617 54.3213 30.2775 54.24 30.1424 54.186C28.1394 53.386 30.5933 51 31.9286 50L31.5354 49.9593C27.9135 52.7647 29.0976 54.1674 30.1424 54.5181Z" fill="white"/>
<path d="M42.8887 66.4411L40.5288 67.2333V72H44.0313V65.9891L42.8887 66.4411Z" fill="white"/>
<path d="M55.4258 61.181L53.5382 62.1313V72H56.5404V60.523C56.1578 60.7627 55.7855 60.982 55.4258 61.181Z" fill="white"/>
</svg>
