<svg width="43" height="34" viewBox="0 0 43 34" fill="none" xmlns="http://www.w3.org/2000/svg">
<path d="M18.6661 4.79961C23.2535 5.35691 29.8594 12.7875 30.4099 16.1313C30.8288 18.6759 28.1658 18.1006 15.5467 15.6334C11.5839 14.8587 6.6393 13.8974 0.5 12.7875C8.57383 5.17114 14.0787 4.24232 18.6661 4.79961Z" fill="black"/>
<path fill-rule="evenodd" clip-rule="evenodd" d="M37.1506 4.99073C34.2169 -3.24992 17.6851 -1.49681 21.2745 11.8289L2.98236 30.4152C2.69475 31.2918 2.53368 32.905 4.19032 32.3439C5.84696 31.7828 8.21685 30.8243 9.19471 30.4152C11.1505 31.9932 16.5115 34.8688 22.3097 33.7466L23.8628 33.2206L28.6947 31.2918L30.0752 30.5905C34.1593 28.3111 41.5336 20.6663 38.3584 8.32244L42.5 4.99073H37.1506ZM30.5929 7.79642C31.7366 7.79642 32.6637 6.8544 32.6637 5.69235C32.6637 4.53031 31.7366 3.58828 30.5929 3.58828C29.4493 3.58828 28.5221 4.53031 28.5221 5.69235C28.5221 6.8544 29.4493 7.79642 30.5929 7.79642Z" fill="black"/>
<path fill-rule="evenodd" clip-rule="evenodd" d="M41.6826 13.9193C41.1321 10.5756 34.5263 3.14496 29.9389 2.58767C25.3515 2.03038 19.8466 2.9592 11.7728 10.5756C17.9121 11.6854 22.8567 12.6467 26.8194 13.4215C27.0923 13.4749 27.3605 13.5273 27.6241 13.5789C39.5523 15.9121 42.0925 16.409 41.6826 13.9193ZM30.5929 7.79642C31.7366 7.79642 32.6637 6.8544 32.6637 5.69235C32.6637 4.53031 31.7366 3.58828 30.5929 3.58828C29.4493 3.58828 28.5221 4.53031 28.5221 5.69235C28.5221 6.8544 29.4493 7.79642 30.5929 7.79642Z" fill="black"/>
</svg>
