<svg width="31" height="21" viewBox="0 0 31 21" fill="none" xmlns="http://www.w3.org/2000/svg">
<path d="M2.38465 0C2.06793 0 1.76674 0.0631014 1.4904 0.176684L14.7924 12.2162C15.2566 12.6359 15.7704 12.6359 16.2331 12.2162L29.51 0.176684C29.2337 0.0631014 28.9325 0 28.6158 0H2.38465ZM0.0248401 2.08233C0.00931522 2.19275 0 2.30791 0 2.42307V18.577C0 18.9083 0.0683122 19.2238 0.1863 19.5109L9.3648 10.5503L0.0248401 2.08233ZM30.9756 2.08233L21.6603 10.5381L30.8261 19.4987C30.9395 19.2148 31 18.904 31 18.5775V2.4235C31 2.30834 30.9907 2.19318 30.9752 2.08275L30.9756 2.08233ZM19.8719 12.166L17.8226 14.0338C16.52 15.2154 14.5048 15.2138 13.2023 14.0338L11.153 12.1786L2.11125 20.9874C2.19974 20.9968 2.29289 21 2.38449 21H28.6156C28.7025 21 28.7926 20.9953 28.8764 20.9874L19.8719 12.166Z" fill="black"/>
</svg>
