<svg width="62" height="82" viewBox="0 0 62 82" fill="none" xmlns="http://www.w3.org/2000/svg">
<path fill-rule="evenodd" clip-rule="evenodd" d="M33.2618 17.7003C38.572 -1.83766 14.1144 -4.40804 9.77414 7.67424H1.85997L7.98719 12.5591C3.49464 29.8677 13.2771 40.8747 19.4245 44.7257C19.705 44.9014 19.9779 45.0623 20.2416 45.2081L21.6254 45.9048L22.284 46.2364L28.5948 48.7329L29.4324 49.0643L31.1625 49.645L31.7301 49.8355C40.3082 51.4808 47.7841 47.3104 50.6775 44.9967C52.1242 45.5965 55.7815 48.0078 58.7158 48.0078C61.268 48.0078 58.8928 44.1238 57.1158 42.2919L33.2618 17.7003ZM16.4121 8.70295C16.4121 10.4067 17.7837 11.7879 19.4757 11.7879C21.1677 11.7879 22.5393 10.4067 22.5393 8.70295C22.5393 6.99918 21.1677 5.61798 19.4757 5.61798C17.7837 5.61798 16.4121 6.99918 16.4121 8.70295ZM38.7767 40.3236C24.4798 47.1105 20.5652 33.3825 20.395 25.6701H20.5817C22.6653 47.1893 35.4472 41.5459 38.3754 40.2531C38.5425 40.1794 38.6775 40.1197 38.7767 40.0802C40.245 39.4937 38.4461 37.7445 37.4671 37.0114L37.7555 36.9816C40.4106 39.0382 39.5426 40.0665 38.7767 40.3236Z" fill="black"/>
<path d="M29.4324 49.0643L31.1625 49.645V53.1394H28.5948V48.7329L29.4324 49.0643Z" fill="black"/>
<path d="M20.2416 45.2081L21.6254 45.9048V53.1394H19.4245V44.7257C19.705 44.9014 19.9779 45.0623 20.2416 45.2081Z" fill="black"/>
<rect x="0.326172" y="52.5027" width="61.3481" height="12.2696" rx="6.13481" fill="black"/>
<rect x="12.5957" y="69.3733" width="36.8088" height="12.2696" rx="6.13481" fill="black"/>
</svg>
